# xmcd
#
# Track frame offsets: 
#        150
#        21016
#        41679
#        59986
#        80621
#        101229
#        116828
#        140513
#        157593
#        179344
#        200918
#        222015
#        245315
#
# Disc length: 3453 seconds
#
# Revision: 0
# Processed by: cddbd v1.5.2PL0 Copyright (c) Steve Scherf et al.
# Submitted via: ExactAudioCopy v0.90b4
#
DISCID=bd0d7b0d
DTITLE=Alme Encendia - Mas Que Palabras
DYEAR=2007
DGENRE=Latin
TTITLE0=Castigo Eterno
TTITLE1=Sueño O Realidad (f. El Jeffrey)
TTITLE2=Si Tu Te Vas
TTITLE3=La Consulta
TTITLE4=No Puedo
TTITLE5=Kathy
TTITLE6=Gracias A Todo
TTITLE7=Por Siempre
TTITLE8=Confesion Escrita
TTITLE9=Una Oportunidad
TTITLE10=Mi Dependencia
TTITLE11=Si Tu Te Vas (Balada)
TTITLE12=Move Ya Body (f. Jaze and Ziete)
EXTD=
EXTT0=
EXTT1=
EXTT2=
EXTT3=
EXTT4=
EXTT5=
EXTT6=
EXTT7=
EXTT8=
EXTT9=
EXTT10=
EXTT11=
EXTT12=
PLAYORDER=
